<svg width="100" height="100" viewBox="0 0 100 100" fill="none" xmlns="http://www.w3.org/2000/svg">
<circle cx="50" cy="50" r="50" fill="#58A9ED"/>
<path d="M25.304 77.904C23.64 77.904 22.456 77.504 21.752 76.704C21.048 75.904 20.696 75.04 20.696 74.112C20.696 73.536 20.824 72.992 21.08 72.48C21.304 71.968 21.624 71.6 22.04 71.376C22.36 71.216 22.648 71.136 22.904 71.136C23.256 71.136 23.576 71.248 23.864 71.472C24.152 71.696 24.296 72 24.296 72.384C24.296 72.48 24.296 72.56 24.296 72.624C24.264 72.72 24.232 72.816 24.2 72.912C24.008 73.072 23.832 73.312 23.672 73.632C23.48 73.952 23.352 74.272 23.288 74.592C23.256 74.656 23.24 74.736 23.24 74.832C23.24 74.928 23.24 75.008 23.24 75.072C23.24 75.488 23.368 75.84 23.624 76.128C23.88 76.416 24.168 76.56 24.488 76.56C25.32 76.56 26.12 76.256 26.888 75.648C27.656 75.04 28.36 74.272 29 73.344C29.672 72.448 30.264 71.536 30.776 70.608C31.288 69.68 31.704 68.88 32.024 68.208C33.496 65.232 34.888 62.128 36.2 58.896C37.544 55.664 38.808 52.512 39.992 49.44H38.648C38.072 49.44 37.464 49.536 36.824 49.728C36.216 49.92 35.736 50.336 35.384 50.976C34.872 51.968 34.312 53.024 33.704 54.144C33.128 55.264 32.472 56.384 31.736 57.504C31.608 57.728 31.496 57.84 31.4 57.84C31.24 57.84 31.16 57.6 31.16 57.12C31.16 56.544 31.256 56.064 31.448 55.68C31.928 54.88 32.392 54 32.84 53.04C33.32 52.048 33.752 51.104 34.136 50.208C34.52 49.312 34.808 48.576 35 48C35.16 47.552 35.32 47.248 35.48 47.088C35.672 46.928 36.056 46.88 36.632 46.944L40.856 47.28C41.24 46.256 41.608 45.264 41.96 44.304C42.344 43.312 42.712 42.368 43.064 41.472C43.8 39.616 44.648 37.84 45.608 36.144C46.568 34.448 47.752 33.072 49.16 32.016C50.6 30.928 52.344 30.384 54.392 30.384C55.576 30.352 56.584 30.528 57.416 30.912C58.248 31.296 58.856 32.016 59.24 33.072C59.336 33.36 59.384 33.696 59.384 34.08C59.384 34.72 59.224 35.376 58.904 36.048C58.584 36.72 58.152 37.184 57.608 37.44C57.448 37.536 57.272 37.6 57.08 37.632C56.888 37.664 56.712 37.68 56.552 37.68C56.136 37.68 55.768 37.568 55.448 37.344C55.128 37.12 54.968 36.8 54.968 36.384C54.968 36.192 55.016 35.984 55.112 35.76C55.688 35.344 56.088 34.752 56.312 33.984C56.344 33.856 56.36 33.744 56.36 33.648C56.392 33.552 56.408 33.456 56.408 33.36C56.408 32.72 56.168 32.256 55.688 31.968C55.496 31.808 55.288 31.712 55.064 31.68C54.84 31.616 54.616 31.584 54.392 31.584C53.336 31.584 52.392 32.08 51.56 33.072C50.536 34.256 49.592 35.712 48.728 37.44C47.896 39.168 47.144 40.928 46.472 42.72C45.832 44.512 45.256 46.096 44.744 47.472C46.056 47.472 47.32 47.456 48.536 47.424C49.784 47.36 50.856 47.28 51.752 47.184C52.648 47.056 53.192 46.928 53.384 46.8C53.16 47.408 52.776 47.888 52.232 48.24C51.72 48.592 50.936 48.848 49.88 49.008C49.144 49.136 48.264 49.232 47.24 49.296C46.216 49.328 45.16 49.36 44.072 49.392L42.68 53.424C42.232 54.704 41.688 56.192 41.048 57.888C40.44 59.584 39.736 61.36 38.936 63.216C38.136 65.04 37.24 66.816 36.248 68.544C35.288 70.272 34.232 71.84 33.08 73.248C31.96 74.688 30.744 75.824 29.432 76.656C28.152 77.488 26.776 77.904 25.304 77.904ZM62.3341 66.432C60.9261 66.432 59.7901 65.872 58.9261 64.752C58.0941 63.6 57.3741 61.952 56.7661 59.808C55.7741 60.864 54.7821 61.888 53.7901 62.88C52.7981 63.872 51.8701 64.912 51.0061 66H47.4541C47.9981 65.52 49.0541 64.544 50.6221 63.072C52.1901 61.6 54.0141 59.84 56.0941 57.792C55.7741 56.864 55.4381 55.84 55.0861 54.72C54.7341 53.568 54.4301 52.448 54.1741 51.36C53.8861 51.936 53.5181 52.672 53.0701 53.568C52.6541 54.464 52.0461 55.552 51.2461 56.832C51.1501 56.992 51.0701 56.944 51.0061 56.688C50.9421 56.432 50.9101 56.128 50.9101 55.776C50.9101 55.264 50.9741 54.88 51.1021 54.624C51.9021 53.12 52.4621 51.888 52.7821 50.928C53.1341 49.968 53.4701 48.992 53.7901 48C54.0461 47.232 54.5741 46.848 55.3741 46.848H57.8701C58.0301 47.808 58.2861 48.96 58.6381 50.304C58.9901 51.616 59.3741 52.944 59.7901 54.288C60.6541 53.424 61.6141 52.368 62.6701 51.12C63.7581 49.84 64.8781 48.56 66.0301 47.28C66.2221 47.056 66.5581 46.928 67.0381 46.896C67.5501 46.832 68.0461 46.816 68.5261 46.848C69.0381 46.848 69.3901 46.848 69.5821 46.848C67.9181 48.32 66.3341 49.808 64.8301 51.312C63.3261 52.816 61.7741 54.4 60.1741 56.064C60.3981 56.704 60.6701 57.488 60.9901 58.416C61.3101 59.312 61.6621 60.16 62.0461 60.96C62.4301 61.76 62.8301 62.352 63.2461 62.736C63.6301 63.088 64.0781 63.264 64.5901 63.264C65.2301 63.264 65.8701 63.024 66.5101 62.544C67.1501 62.064 67.7421 61.52 68.2861 60.912C68.8301 60.304 69.2621 59.792 69.5821 59.376C70.2221 58.544 70.8301 57.664 71.4061 56.736C72.0141 55.776 72.5421 54.848 72.9901 53.952C73.1181 53.728 73.2301 53.616 73.3261 53.616C73.4861 53.616 73.5661 53.856 73.5661 54.336C73.5661 54.624 73.5181 54.944 73.4221 55.296C73.3581 55.648 73.2301 56 73.0381 56.352C72.4941 57.28 71.9341 58.176 71.3581 59.04C70.8141 59.904 70.2221 60.736 69.5821 61.536C69.0701 62.176 68.3981 62.88 67.5661 63.648C66.7661 64.416 65.9021 65.072 64.9741 65.616C64.0781 66.16 63.1981 66.432 62.3341 66.432Z" fill="white"/>
</svg>
