<svg width="100" height="100" viewBox="0 0 100 100" fill="none" xmlns="http://www.w3.org/2000/svg">
<circle cx="50" cy="50" r="50" fill="#58A9ED"/>
<path d="M38 74L62 26" stroke="white" stroke-width="2" stroke-linecap="round" stroke-linejoin="round"/>
<path d="M39.5664 26.0117L33.373 40.1484C32.8171 41.4245 32.2246 42.5228 31.5957 43.4434C30.9668 44.3548 30.1693 45.0566 29.2031 45.5488C28.237 46.0319 26.9701 46.2734 25.4023 46.2734C24.9102 46.2734 24.377 46.237 23.8027 46.1641C23.2285 46.1003 22.6953 46 22.2031 45.8633V42.2266C22.6589 42.3997 23.151 42.5273 23.6797 42.6094C24.2174 42.6823 24.7233 42.7188 25.1973 42.7188C25.8171 42.7188 26.3184 42.6139 26.7012 42.4043C27.084 42.1947 27.3893 41.9121 27.6172 41.5566C27.8451 41.2012 28.0365 40.8047 28.1914 40.3672L21.2734 26.0117H25.7578L29.4902 34.666C29.5723 34.8483 29.6771 35.0944 29.8047 35.4043C29.9414 35.7051 30.0736 36.015 30.2012 36.334C30.3379 36.6439 30.4427 36.9173 30.5156 37.1543H30.666C30.7389 36.9264 30.8346 36.653 30.9531 36.334C31.0807 36.0059 31.2129 35.6732 31.3496 35.3359C31.4863 34.9896 31.6094 34.6797 31.7188 34.4062L35.1914 26.0117H39.5664Z" fill="white"/>
<path d="M68.7363 64.2422L72.9062 56.0117H77.4727L70.8418 68.2207V76H66.6309V68.3574L60 56.0117H64.5938L68.7363 64.2422Z" fill="white"/>
</svg>
