<svg width="100" height="100" viewBox="0 0 100 100" fill="none" xmlns="http://www.w3.org/2000/svg">
<circle cx="50" cy="50" r="50" fill="#58A9ED"/>
<path d="M49.4844 37.2578C53 37.2578 55.6953 38.0234 57.5703 39.5547C59.4453 41.0859 60.3828 43.4141 60.3828 46.5391V64H55.3906L54.0078 60.4375H53.8203C53.0703 61.375 52.3047 62.1406 51.5234 62.7344C50.7422 63.3281 49.8438 63.7656 48.8281 64.0469C47.8125 64.3281 46.5781 64.4688 45.125 64.4688C43.5781 64.4688 42.1875 64.1719 40.9531 63.5781C39.7344 62.9844 38.7734 62.0781 38.0703 60.8594C37.3672 59.625 37.0156 58.0625 37.0156 56.1719C37.0156 53.3906 37.9922 51.3438 39.9453 50.0312C41.8984 48.7031 44.8281 47.9688 48.7344 47.8281L53.2812 47.6875V46.5391C53.2812 45.1641 52.9219 44.1562 52.2031 43.5156C51.4844 42.875 50.4844 42.5547 49.2031 42.5547C47.9375 42.5547 46.6953 42.7344 45.4766 43.0938C44.2578 43.4531 43.0391 43.9062 41.8203 44.4531L39.4531 39.625C40.8438 38.8906 42.3984 38.3125 44.1172 37.8906C45.8516 37.4688 47.6406 37.2578 49.4844 37.2578ZM53.2812 51.8594L50.5156 51.9531C48.2031 52.0156 46.5938 52.4297 45.6875 53.1953C44.7969 53.9609 44.3516 54.9688 44.3516 56.2188C44.3516 57.3125 44.6719 58.0938 45.3125 58.5625C45.9531 59.0156 46.7891 59.2422 47.8203 59.2422C49.3516 59.2422 50.6406 58.7891 51.6875 57.8828C52.75 56.9766 53.2812 55.6875 53.2812 54.0156V51.8594Z" fill="white"/>
</svg>
